<svg xmlns="http://www.w3.org/2000/svg" width="480pt" height="290pt" viewBox="0 0 480 290" version="1.1" xmlns:xlink="http://www.w3.org/1999/xlink">
  <g id="surface2" transform="matrix(1.5714045881107512,0,0,1.5714045881107512,-211.5658644416934,22.859373305700018)" data-tpl_matrix="1,0,0,1,0,0">
    <path style="stroke:none;fill-rule:evenodd;fill:rgb(83.921569%,91.372549%,88.235294%);fill-opacity:1" d="M 180.050781 149.101562 C 180.082031 149.066406 180.699219 148.582031 181.898438 147.648438 C 181.332031 147.949219 180.750000 148.265625 180.148438 148.601562 C 180.082031 148.933594 180.050781 149.101562 180.050781 149.101562"/>
    <path style="stroke:none;fill-rule:evenodd;fill:rgb(83.921569%,91.372549%,88.235294%);fill-opacity:1" d="M 291.250000 130.449219 C 289.816406 130.316406 288.882812 129.601562 288.449219 128.300781 C 288.382812 128.066406 288.351562 127.816406 288.351562 127.550781 C 288.515625 125.785156 289.484375 124.816406 291.250000 124.648438 C 292.984375 124.816406 293.933594 125.785156 294.101562 127.550781 C 294.101562 128.316406 293.851562 128.964844 293.351562 129.500000 C 292.785156 130.101562 292.082031 130.417969 291.250000 130.449219 M 298.351562 130.851562 C 299.917969 130.316406 301.601562 129.750000 303.398438 129.148438 C 303.332031 129.015625 301.882812 127.898438 299.050781 125.800781 C 296.250000 123.667969 292.285156 121.417969 287.148438 119.050781 C 284.316406 118.316406 281.398438 117.800781 278.398438 117.500000 C 267.699219 116.667969 256.750000 118.316406 245.550781 122.449219 C 244.148438 122.949219 242.765625 123.464844 241.398438 124.000000 L 241.148438 124.101562 L 239.250000 124.851562 C 238.484375 125.148438 237.714844 125.433594 236.949219 125.699219 C 233.851562 126.765625 230.714844 127.566406 227.550781 128.101562 C 221.117188 129.167969 214.882812 129.167969 208.851562 128.101562 C 207.582031 127.867188 206.332031 127.601562 205.101562 127.300781 C 194.632812 124.433594 186.285156 119.617188 180.050781 112.851562 C 179.816406 113.148438 180.683594 115.250000 182.648438 119.148438 C 184.582031 123.050781 188.964844 127.000000 195.800781 131.000000 C 189.867188 134.367188 185.800781 137.800781 183.601562 141.300781 C 181.433594 144.800781 180.285156 147.214844 180.148438 148.550781 C 187.183594 140.949219 196.750000 135.917969 208.851562 133.449219 C 214.882812 132.351562 221.117188 132.332031 227.550781 133.398438 C 230.714844 133.964844 233.851562 134.785156 236.949219 135.851562 C 237.714844 136.117188 238.484375 136.398438 239.250000 136.699219 L 241.398438 137.550781 C 242.765625 138.082031 244.148438 138.582031 245.550781 139.050781 C 256.750000 143.214844 267.699219 144.867188 278.398438 144.000000 C 281.632812 143.699219 284.785156 143.132812 287.851562 142.300781 C 292.785156 139.898438 296.617188 137.648438 299.351562 135.550781 C 302.082031 133.449219 303.464844 132.332031 303.500000 132.199219 C 301.699219 131.734375 299.984375 131.285156 298.351562 130.851562"/>
    <path style="stroke:none;fill-rule:evenodd;fill:rgb(100.000000%,88.627451%,57.647059%);fill-opacity:1" d="M 231.699219 87.398438 C 231.601562 87.234375 231.500000 87.066406 231.398438 86.898438 C 231.433594 87.101562 231.449219 87.285156 231.449219 87.449219 C 231.550781 87.449219 231.632812 87.433594 231.699219 87.398438"/>
    <path style="stroke:none;fill-rule:evenodd;fill:rgb(99.215686%,72.549020%,14.117647%);fill-opacity:1" d="M 217.898438 76.148438 C 217.199219 75.816406 216.500000 75.515625 215.800781 75.250000 C 213.632812 74.648438 211.367188 74.351562 209.000000 74.351562 C 201.832031 74.515625 195.832031 76.867188 191.000000 81.398438 C 186.199219 85.964844 183.617188 91.683594 183.250000 98.550781 C 185.316406 98.785156 187.417969 98.898438 189.550781 98.898438 C 194.882812 98.933594 200.234375 98.214844 205.601562 96.750000 C 208.234375 96.050781 210.867188 95.167969 213.500000 94.101562 C 214.734375 93.566406 216.082031 92.964844 217.550781 92.300781 C 218.984375 91.632812 220.464844 91.015625 222.000000 90.449219 C 224.964844 89.316406 227.964844 88.367188 231.000000 87.601562 C 227.632812 82.566406 223.265625 78.750000 217.898438 76.148438"/>
    <path style="stroke:none;fill-rule:evenodd;fill:rgb(48.235294%,61.960784%,79.607843%);fill-opacity:1" d="M 226.550781 112.398438 C 236.714844 109.101562 246.601562 106.265625 256.199219 103.898438 C 265.800781 101.535156 275.449219 102.632812 285.148438 107.199219 C 285.148438 107.199219 284.964844 106.984375 284.601562 106.550781 C 276.933594 101.183594 268.148438 98.132812 258.250000 97.398438 C 247.515625 96.800781 236.601562 98.699219 225.500000 103.101562 C 224.101562 103.632812 222.734375 104.183594 221.398438 104.750000 L 219.250000 105.648438 C 218.484375 105.949219 217.714844 106.250000 216.949219 106.550781 C 213.882812 107.683594 210.765625 108.566406 207.601562 109.199219 C 201.234375 110.398438 195.015625 110.535156 188.949219 109.601562 C 178.117188 107.699219 169.214844 103.632812 162.250000 97.398438 C 163.082031 99.035156 165.816406 101.785156 170.449219 105.648438 C 175.082031 109.515625 181.984375 112.515625 191.148438 114.648438 C 200.316406 116.750000 212.117188 116.000000 226.550781 112.398438"/>
    <path style="stroke:none;fill-rule:evenodd;fill:rgb(14.509804%,27.450980%,45.882353%);fill-opacity:1" d="M 205.101562 127.300781 C 206.332031 127.601562 207.582031 127.867188 208.851562 128.101562 C 214.882812 129.167969 221.117188 129.167969 227.550781 128.101562 C 230.714844 127.566406 233.851562 126.765625 236.949219 125.699219 C 237.714844 125.433594 238.484375 125.148438 239.250000 124.851562 L 241.148438 124.101562 L 241.398438 124.000000 C 242.765625 123.464844 244.148438 122.949219 245.550781 122.449219 C 256.750000 118.316406 267.699219 116.683594 278.398438 117.550781 C 281.398438 117.816406 284.316406 118.332031 287.148438 119.101562 C 294.515625 120.964844 300.964844 124.214844 306.500000 128.851562 C 300.832031 119.917969 291.882812 113.765625 279.648438 110.398438 C 267.382812 107.667969 254.933594 108.617188 242.300781 113.250000 C 240.734375 113.785156 239.214844 114.367188 237.750000 115.000000 C 236.285156 115.601562 234.933594 116.148438 233.699219 116.648438 C 231.035156 117.683594 228.367188 118.535156 225.699219 119.199219 C 220.332031 120.500000 214.964844 121.082031 209.601562 120.949219 C 198.765625 120.484375 188.917969 117.785156 180.050781 112.851562 C 186.285156 119.617188 194.632812 124.433594 205.101562 127.300781"/>
    <path style="stroke:none;fill-rule:evenodd;fill:rgb(14.509804%,27.450980%,45.882353%);fill-opacity:1" d="M 207.648438 109.199219 C 210.785156 108.566406 213.898438 107.683594 217.000000 106.550781 C 217.765625 106.285156 218.515625 105.984375 219.250000 105.648438 L 221.398438 104.750000 C 222.765625 104.183594 224.132812 103.632812 225.500000 103.101562 C 236.601562 98.734375 247.515625 96.832031 258.250000 97.398438 C 268.148438 98.167969 276.933594 101.214844 284.601562 106.550781 C 285.265625 107.050781 285.933594 107.550781 286.601562 108.050781 C 284.535156 104.882812 281.882812 102.000000 278.648438 99.398438 C 273.250000 95.035156 266.800781 91.984375 259.300781 90.250000 C 247.000000 87.816406 234.566406 89.066406 222.000000 94.000000 C 220.500000 94.566406 219.015625 95.183594 217.550781 95.851562 C 216.082031 96.484375 214.734375 97.066406 213.500000 97.601562 C 210.898438 98.667969 208.265625 99.566406 205.601562 100.300781 C 200.234375 101.734375 194.882812 102.449219 189.550781 102.449219 C 182.648438 102.351562 176.035156 101.265625 169.699219 99.199219 C 166.234375 98.066406 162.933594 96.683594 159.800781 95.050781 C 160.566406 95.851562 161.382812 96.632812 162.250000 97.398438 C 169.250000 103.632812 178.148438 107.699219 188.949219 109.601562 C 195.015625 110.566406 201.250000 110.433594 207.648438 109.199219"/>
    <path style="stroke:none;fill-rule:evenodd;fill:rgb(48.235294%,61.960784%,79.607843%);fill-opacity:1" d="M 278.398438 144.000000 C 267.699219 144.832031 256.750000 143.183594 245.550781 139.050781 C 244.148438 138.550781 242.765625 138.035156 241.398438 137.500000 L 239.250000 136.648438 C 238.484375 136.351562 237.714844 136.066406 236.949219 135.800781 C 233.851562 134.734375 230.714844 133.933594 227.550781 133.398438 C 221.117188 132.332031 214.882812 132.332031 208.851562 133.398438 C 196.750000 135.898438 187.183594 140.949219 180.148438 148.550781 C 180.117188 148.582031 180.082031 148.617188 180.050781 148.648438 C 180.082031 148.648438 180.117188 148.632812 180.148438 148.601562 C 180.750000 148.265625 181.332031 147.949219 181.898438 147.648438 C 190.332031 143.351562 199.566406 141.000000 209.601562 140.601562 C 214.964844 140.433594 220.332031 141.015625 225.699219 142.351562 C 228.367188 143.015625 231.035156 143.851562 233.699219 144.851562 C 234.933594 145.351562 236.285156 145.898438 237.750000 146.500000 C 239.214844 147.132812 240.734375 147.714844 242.300781 148.250000 C 254.933594 152.882812 267.382812 153.832031 279.648438 151.101562 C 291.882812 147.765625 300.832031 141.632812 306.500000 132.699219 C 301.132812 137.132812 294.917969 140.316406 287.851562 142.250000 C 284.785156 143.082031 281.632812 143.667969 278.398438 144.000000"/>
    <path style="stroke:none;fill-rule:evenodd;fill:rgb(99.215686%,72.549020%,14.117647%);fill-opacity:1" d="M 175.449219 97.250000 C 176.882812 91.449219 179.648438 86.433594 183.750000 82.199219 C 188.148438 77.699219 193.515625 74.851562 199.851562 73.648438 C 205.382812 72.714844 210.699219 73.234375 215.800781 75.199219 C 216.535156 75.500000 217.250000 75.816406 217.949219 76.148438 C 223.285156 78.750000 227.648438 82.550781 231.050781 87.550781 C 231.214844 87.816406 231.367188 88.066406 231.500000 88.300781 C 231.500000 88.000000 231.484375 87.714844 231.449219 87.449219 C 231.449219 87.285156 231.433594 87.101562 231.398438 86.898438 C 230.699219 80.699219 227.535156 75.101562 221.898438 70.101562 C 218.800781 67.566406 215.183594 65.714844 211.050781 64.550781 C 206.882812 63.449219 202.582031 63.265625 198.148438 64.000000 C 188.984375 66.000000 182.250000 70.632812 177.949219 77.898438 C 174.351562 84.601562 173.316406 91.000000 174.851562 97.101562 C 174.949219 97.500000 175.066406 97.898438 175.199219 98.300781 C 175.265625 97.933594 175.351562 97.582031 175.449219 97.250000"/>
    <path style="stroke:none;fill-rule:evenodd;fill:rgb(99.215686%,72.549020%,14.117647%);fill-opacity:1" d="M 254.750000 75.199219 C 246.148438 74.199219 239.199219 75.933594 233.898438 80.398438 C 240.234375 80.167969 246.851562 80.582031 253.750000 81.648438 C 260.582031 82.882812 267.000000 84.550781 273.000000 86.648438 C 271.234375 83.949219 268.800781 81.550781 265.699219 79.449219 C 262.535156 77.351562 258.882812 75.933594 254.750000 75.199219"/>
    <path style="stroke:none;fill-rule:evenodd;fill:rgb(99.215686%,72.549020%,14.117647%);fill-opacity:1" d="M 227.000000 69.750000 C 232.832031 67.648438 239.332031 66.367188 246.500000 65.898438 C 253.699219 65.199219 260.464844 64.484375 266.800781 63.750000 C 261.066406 60.250000 254.066406 58.816406 245.800781 59.449219 C 241.765625 59.851562 238.050781 60.933594 234.648438 62.699219 C 231.214844 64.535156 228.667969 66.882812 227.000000 69.750000"/>
    <path style="stroke:none;fill-rule:evenodd;fill:rgb(99.215686%,72.549020%,14.117647%);fill-opacity:1" d="M 217.449219 63.101562 C 219.382812 61.433594 221.500000 59.933594 223.800781 58.601562 C 226.101562 57.167969 228.449219 55.632812 230.851562 54.000000 C 233.214844 52.367188 235.464844 50.699219 237.601562 49.000000 C 239.699219 47.234375 241.800781 45.632812 243.898438 44.199219 C 241.199219 43.632812 238.382812 43.800781 235.449219 44.699219 C 232.582031 45.500000 229.816406 46.816406 227.148438 48.648438 C 224.484375 50.484375 222.250000 52.648438 220.449219 55.148438 C 218.617188 57.683594 217.617188 60.332031 217.449219 63.101562"/>
    <path style="stroke:none;fill-rule:evenodd;fill:rgb(99.215686%,72.549020%,14.117647%);fill-opacity:1" d="M 214.949219 47.851562 C 216.484375 45.582031 217.851562 43.332031 219.050781 41.101562 C 220.183594 38.867188 221.351562 36.699219 222.550781 34.601562 C 220.050781 35.066406 217.667969 36.183594 215.398438 37.949219 C 213.199219 39.648438 211.250000 41.714844 209.550781 44.148438 C 206.183594 49.183594 204.601562 54.300781 204.800781 59.500000 C 208.398438 56.199219 211.785156 52.316406 214.949219 47.851562"/>
    <path style="stroke:none;fill-rule:evenodd;fill:rgb(99.215686%,72.549020%,14.117647%);fill-opacity:1" d="M 166.000000 92.398438 C 167.832031 92.667969 169.351562 92.234375 170.550781 91.101562 C 169.484375 90.101562 168.699219 89.101562 168.199219 88.101562 C 167.601562 87.167969 166.917969 86.316406 166.148438 85.550781 C 165.351562 84.785156 164.464844 84.101562 163.500000 83.500000 C 162.464844 83.000000 161.417969 82.265625 160.351562 81.300781 C 159.316406 82.601562 158.964844 84.132812 159.300781 85.898438 C 159.601562 87.535156 160.367188 88.964844 161.601562 90.199219 C 162.832031 91.398438 164.300781 92.132812 166.000000 92.398438"/>
    <path style="stroke:none;fill-rule:evenodd;fill:rgb(99.215686%,72.549020%,14.117647%);fill-opacity:1" d="M 174.648438 78.750000 C 173.015625 75.750000 171.500000 73.050781 170.101562 70.648438 C 168.601562 68.285156 166.750000 65.750000 164.550781 63.050781 C 162.417969 66.316406 162.417969 70.000000 164.550781 74.101562 C 167.351562 77.898438 170.714844 79.449219 174.648438 78.750000"/>
    <path style="stroke:none;fill-rule:evenodd;fill:rgb(99.215686%,72.549020%,14.117647%);fill-opacity:1" d="M 197.351562 49.000000 C 198.449219 44.601562 199.300781 40.250000 199.898438 35.949219 C 195.601562 38.117188 192.667969 41.898438 191.101562 47.300781 C 189.832031 52.535156 190.101562 57.265625 191.898438 61.500000 C 194.367188 57.734375 196.183594 53.566406 197.351562 49.000000"/>
    <path style="stroke:none;fill-rule:evenodd;fill:rgb(99.215686%,72.549020%,14.117647%);fill-opacity:1" d="M 181.648438 68.199219 C 181.417969 64.300781 181.000000 60.535156 180.398438 56.898438 C 179.734375 53.398438 179.000000 49.734375 178.199219 45.898438 C 176.601562 47.167969 175.382812 48.882812 174.550781 51.050781 C 173.750000 53.214844 173.550781 55.535156 173.949219 58.000000 C 175.082031 63.066406 177.648438 66.464844 181.648438 68.199219"/>
  </g>
  <g id="surface4">
    <text style="fill:rgb(37,70,117)" font-family="Helvetica" font-size="50" transform="matrix(0.8623285960097516,0,0,0.8623285960097516,14.643988345068085,51.447635324241915)" xml:space="preserve"><![CDATA[MASSAGE & BODYFIT]]></text>
    <text style="fill:rgb(37,70,117)" font-family="Helvetica" font-size="35" transform="matrix(0.3997958151227858,0,0,0.3997958151227858,169.890710450636,232.86813309390482)" xml:space="preserve"><![CDATA[BONAIRE]]></text>
    <text style="fill:rgb(37,70,117)" font-family="Helvetica" font-size="35" transform="matrix(0.7053097687203687,0,0,0.7053097687203687,235.5269699495876,87.36963575358497)" xml:space="preserve"><![CDATA[ HOME THERAPIST]]></text>
  </g>
</svg>